<svg width="22" height="19" fill="none" xmlns="http://www.w3.org/2000/svg"><path fill-rule="evenodd" clip-rule="evenodd" d="M19.244 2.748a4.36 4.36 0 00-6.104-.004l-2.149 2.168-2.17-2.147C7.133 1.082 4.4 1.09 2.743 2.743l-.005.006A4.158 4.158 0 001.5 5.745a4.25 4.25 0 001.245 3.002l8.235 8.143 8.264-8.17c1.678-1.66 1.67-4.337.006-5.966l-.006-.006zM10.98 19L1.684 9.808A5.75 5.75 0 010 5.745C0 4.213.584 2.77 1.684 1.682 3.93-.561 7.612-.561 9.88 1.704l1.1 1.088 1.1-1.11c2.269-2.243 5.951-2.243 8.22 0 2.267 2.22 2.267 5.861 0 8.104L10.98 19z" fill="#000"/></svg>